<svg xmlns="http://www.w3.org/2000/svg">
    <symbol id="insta-icon" x="0px" y="0px" viewBox="0 0 504.4 504.4" style="enable-background:new 0 0 504.4 504.4;" xml:space="preserve">
		<path d="M296.8,219.8c-10-14-26.4-23.2-44.8-23.2c-18.4,0-34.8,9.2-44.8,23.2c-6.4,9.2-10.4,20.4-10.4,32.4c0,30.4,24.8,55.2,55.2,55.2c30.4,0,55.2-24.8,55.2-55.2C307.2,240.2,303.2,229,296.8,219.8z"/>
		<path d="M331.6,220.2c4,8,6.4,20.8,6.4,32c0,47.2-38.4,86-86,86c-47.6,0-86-38.4-86-86c0-11.6,2.4-24,6.4-32H124v128.4
		c0,16.8,14.8,31.6,31.6,31.6h192.8c16.8,0,31.6-14.8,31.6-31.6V220.2H331.6z"/>
		<polygon points="365.6,131.4 319.2,131.4 319.2,184.6 372,184.6 372,138.2 372,131 		"/>
		<path d="M377.6,0.2H126.4C56.8,0.2,0,57,0,126.6v251.6c0,69.2,56.8,126,126.4,126H378c69.6,0,126.4-56.8,126.4-126.4V126.6
		C504,57,447.2,0.2,377.6,0.2z M408,219.8L408,219.8l0,128.8c0,33.6-26,59.6-59.6,59.6H155.6c-33.6,0-59.6-26-59.6-59.6V219.8v-64
		c0-33.6,26-59.6,59.6-59.6h192.8c33.6,0,59.6,26,59.6,59.6V219.8z"/>
	</symbol>

	<symbol id="vk-icon" x="0px" y="0px" viewBox="0 0 455 455">
		<path style="fill-rule:evenodd;clip-rule:evenodd;" d="M0,0v455h455V0H0z M341.098,251.727c10.445,10.19,21.49,19.784,30.865,31.049
			c4.142,4.978,8.06,10.113,11.046,15.881c4.239,8.264,0.397,17.318-6.985,17.817l-45.875-0.02
			c-11.841,0.973-21.277-3.801-29.235-11.902c-6.328-6.45-12.243-13.354-18.352-20.023c-2.486-2.746-5.115-5.314-8.239-7.362
			c-6.267-4.061-11.703-2.828-15.285,3.699c-3.643,6.649-4.499,14.031-4.835,21.435c-0.499,10.807-3.76,13.634-14.607,14.154
			c-23.208,1.075-45.218-2.451-65.659-14.134c-18.052-10.307-32.022-24.879-44.184-41.356
			c-23.702-32.124-41.855-67.391-58.154-103.673c-3.684-8.177-0.993-12.559,7.999-12.717c14.99-0.296,29.974-0.26,44.943-0.02
			c6.089,0.102,10.129,3.582,12.458,9.334c8.101,19.906,18.01,38.85,30.448,56.427c3.327,4.677,6.71,9.334,11.504,12.636
			c5.314,3.663,9.375,2.466,11.881-3.485c1.595-3.78,2.293-7.8,2.629-11.841c1.192-13.833,1.335-27.681-0.718-41.473
			c-1.274-8.621-6.149-14.195-14.745-15.825c-4.382-0.836-3.725-2.446-1.615-4.958c3.704-4.315,7.189-7.006,14.093-7.006h51.847
			c8.177,1.595,10.011,5.278,11.122,13.497l0.041,57.619c-0.097,3.184,1.595,12.615,7.306,14.704
			c4.575,1.513,7.622-2.171,10.368-5.075c12.417-13.176,21.277-28.756,29.194-44.877c3.505-7.087,6.532-14.449,9.477-21.817
			c2.17-5.452,5.553-8.137,11.703-8.04l49.916,0.061c1.472,0,2.986,0,4.438,0.239c8.396,1.452,10.705,5.075,8.096,13.293
			c-4.076,12.875-12.06,23.625-19.84,34.391c-8.341,11.525-17.216,22.647-25.495,34.233
			C331.087,237.201,331.683,242.535,341.098,251.727z"/>
	</symbol>
</svg>